<svg xmlns="http://www.w3.org/2000/svg" viewBox="0 0 24 24" fill="#2563eb">
  <path fill-rule="evenodd" d="M11.484 2.17a.75.75 0 011.032 0 11.209 11.209 0 007.877 3.08.75.75 0 01.722.515c.412 1.255.635 2.595.635 3.985 0 5.942-4.064 10.933-9.563 12.348a.75.75 0 01-.374 0C6.314 20.683 2.25 15.692 2.25 9.75c0-1.39.223-2.73.635-3.985a.75.75 0 01.722-.516l.143.001c2.996 0 5.717-1.17 7.734-3.08zm-1.328 8.016l-3.236 4.53L9.53 12.22a.75.75 0 00-1.06 1.06l2.25 2.25a.75.75 0 001.14-.094l3.75-5.25a.75.75 0 10-1.22-.872z" clip-rule="evenodd" />
</svg>